<?xml version="1.0" encoding="UTF-8" ?>
<svg version="1.1" width="180" height="210" xmlns="http://www.w3.org/2000/svg" shape-rendering="crispEdges">
<rect x="0" y="0" width="180" height="15" fill="#B1714C" />
<rect x="0" y="15" width="15" height="3" fill="#B1714C" />
<rect x="15" y="15" width="150" height="3" fill="#FFFFFF" />
<rect x="165" y="15" width="15" height="195" fill="#B1714C" />
<rect x="0" y="18" width="3" height="192" fill="#B1714C" />
<rect x="3" y="18" width="9" height="3" fill="#FFFFFF" />
<rect x="12" y="18" width="3" height="192" fill="#B1714C" />
<rect x="15" y="18" width="27" height="24" fill="#FFFFFF" />
<rect x="42" y="18" width="24" height="24" fill="#B1714C" />
<rect x="66" y="18" width="24" height="24" fill="#FFFFFF" />
<rect x="90" y="18" width="24" height="24" fill="#B1714C" />
<rect x="114" y="18" width="24" height="24" fill="#FFFFFF" />
<rect x="138" y="18" width="24" height="24" fill="#B1714C" />
<rect x="162" y="18" width="3" height="171" fill="#FFFFFF" />
<rect x="3" y="21" width="6" height="6" fill="#B1714C" />
<rect x="9" y="21" width="3" height="6" fill="#FFFFFF" />
<rect x="3" y="27" width="3" height="6" fill="#B1714C" />
<rect x="6" y="27" width="3" height="6" fill="#FFFFFF" />
<rect x="9" y="27" width="3" height="18" fill="#B1714C" />
<rect x="3" y="33" width="3" height="6" fill="#FFFFFF" />
<rect x="6" y="33" width="3" height="12" fill="#B1714C" />
<rect x="3" y="39" width="3" height="9" fill="#B1714C" />
<rect x="15" y="42" width="3" height="147" fill="#FFFFFF" />
<rect x="18" y="42" width="24" height="24" fill="#B1714C" />
<rect x="42" y="42" width="24" height="24" fill="#FFFFFF" />
<rect x="66" y="42" width="24" height="24" fill="#B1714C" />
<rect x="90" y="42" width="24" height="24" fill="#FFFFFF" />
<rect x="114" y="42" width="24" height="24" fill="#B1714C" />
<rect x="138" y="42" width="24" height="24" fill="#FFFFFF" />
<rect x="6" y="45" width="6" height="3" fill="#FFFFFF" />
<rect x="3" y="48" width="3" height="12" fill="#FFFFFF" />
<rect x="6" y="48" width="6" height="6" fill="#B1714C" />
<rect x="6" y="54" width="6" height="3" fill="#FFFFFF" />
<rect x="6" y="57" width="3" height="3" fill="#B1714C" />
<rect x="9" y="57" width="3" height="6" fill="#FFFFFF" />
<rect x="3" y="60" width="3" height="9" fill="#B1714C" />
<rect x="6" y="60" width="3" height="3" fill="#FFFFFF" />
<rect x="6" y="63" width="6" height="6" fill="#B1714C" />
<rect x="18" y="66" width="24" height="24" fill="#FFFFFF" />
<rect x="42" y="66" width="24" height="24" fill="#B1714C" />
<rect x="66" y="66" width="24" height="24" fill="#FFFFFF" />
<rect x="90" y="66" width="24" height="24" fill="#B1714C" />
<rect x="114" y="66" width="24" height="24" fill="#FFFFFF" />
<rect x="138" y="66" width="24" height="24" fill="#B1714C" />
<rect x="3" y="69" width="9" height="3" fill="#FFFFFF" />
<rect x="3" y="72" width="3" height="6" fill="#FFFFFF" />
<rect x="6" y="72" width="6" height="3" fill="#B1714C" />
<rect x="6" y="75" width="3" height="3" fill="#FFFFFF" />
<rect x="9" y="75" width="3" height="3" fill="#B1714C" />
<rect x="3" y="78" width="6" height="6" fill="#B1714C" />
<rect x="9" y="78" width="3" height="6" fill="#FFFFFF" />
<rect x="3" y="84" width="6" height="3" fill="#FFFFFF" />
<rect x="9" y="84" width="3" height="9" fill="#B1714C" />
<rect x="3" y="87" width="6" height="6" fill="#B1714C" />
<rect x="18" y="90" width="24" height="24" fill="#B1714C" />
<rect x="42" y="90" width="24" height="24" fill="#FFFFFF" />
<rect x="66" y="90" width="24" height="24" fill="#B1714C" />
<rect x="90" y="90" width="24" height="24" fill="#FFFFFF" />
<rect x="114" y="90" width="24" height="24" fill="#B1714C" />
<rect x="138" y="90" width="24" height="24" fill="#FFFFFF" />
<rect x="3" y="93" width="3" height="12" fill="#FFFFFF" />
<rect x="6" y="93" width="3" height="9" fill="#B1714C" />
<rect x="9" y="93" width="3" height="18" fill="#FFFFFF" />
<rect x="6" y="102" width="3" height="3" fill="#FFFFFF" />
<rect x="3" y="105" width="6" height="15" fill="#B1714C" />
<rect x="9" y="111" width="3" height="12" fill="#B1714C" />
<rect x="18" y="114" width="24" height="24" fill="#FFFFFF" />
<rect x="42" y="114" width="24" height="24" fill="#B1714C" />
<rect x="66" y="114" width="24" height="24" fill="#FFFFFF" />
<rect x="90" y="114" width="24" height="24" fill="#B1714C" />
<rect x="114" y="114" width="24" height="24" fill="#FFFFFF" />
<rect x="138" y="114" width="24" height="24" fill="#B1714C" />
<rect x="3" y="120" width="6" height="3" fill="#FFFFFF" />
<rect x="3" y="123" width="6" height="3" fill="#B1714C" />
<rect x="9" y="123" width="3" height="3" fill="#FFFFFF" />
<rect x="3" y="126" width="6" height="3" fill="#FFFFFF" />
<rect x="9" y="126" width="3" height="3" fill="#B1714C" />
<rect x="3" y="129" width="6" height="3" fill="#B1714C" />
<rect x="9" y="129" width="3" height="3" fill="#FFFFFF" />
<rect x="3" y="132" width="6" height="3" fill="#FFFFFF" />
<rect x="9" y="132" width="3" height="12" fill="#B1714C" />
<rect x="3" y="135" width="6" height="6" fill="#B1714C" />
<rect x="18" y="138" width="24" height="24" fill="#B1714C" />
<rect x="42" y="138" width="24" height="24" fill="#FFFFFF" />
<rect x="66" y="138" width="24" height="24" fill="#B1714C" />
<rect x="90" y="138" width="24" height="24" fill="#FFFFFF" />
<rect x="114" y="138" width="24" height="24" fill="#B1714C" />
<rect x="138" y="138" width="24" height="24" fill="#FFFFFF" />
<rect x="3" y="141" width="3" height="3" fill="#B1714C" />
<rect x="6" y="141" width="3" height="3" fill="#FFFFFF" />
<rect x="3" y="144" width="3" height="3" fill="#FFFFFF" />
<rect x="6" y="144" width="3" height="6" fill="#B1714C" />
<rect x="9" y="144" width="3" height="6" fill="#FFFFFF" />
<rect x="3" y="147" width="3" height="6" fill="#B1714C" />
<rect x="6" y="150" width="3" height="3" fill="#FFFFFF" />
<rect x="9" y="150" width="3" height="6" fill="#B1714C" />
<rect x="3" y="153" width="3" height="6" fill="#FFFFFF" />
<rect x="6" y="153" width="3" height="3" fill="#B1714C" />
<rect x="6" y="156" width="6" height="3" fill="#FFFFFF" />
<rect x="3" y="159" width="9" height="6" fill="#B1714C" />
<rect x="18" y="162" width="24" height="27" fill="#FFFFFF" />
<rect x="42" y="162" width="24" height="24" fill="#B1714C" />
<rect x="66" y="162" width="24" height="27" fill="#FFFFFF" />
<rect x="90" y="162" width="24" height="24" fill="#B1714C" />
<rect x="114" y="162" width="24" height="27" fill="#FFFFFF" />
<rect x="138" y="162" width="24" height="24" fill="#B1714C" />
<rect x="3" y="165" width="3" height="3" fill="#B1714C" />
<rect x="6" y="165" width="3" height="21" fill="#FFFFFF" />
<rect x="9" y="165" width="3" height="45" fill="#B1714C" />
<rect x="3" y="168" width="3" height="3" fill="#FFFFFF" />
<rect x="3" y="171" width="3" height="39" fill="#B1714C" />
<rect x="6" y="186" width="3" height="24" fill="#B1714C" />
<rect x="42" y="186" width="24" height="3" fill="#FFFFFF" />
<rect x="90" y="186" width="24" height="3" fill="#FFFFFF" />
<rect x="138" y="186" width="24" height="3" fill="#FFFFFF" />
<rect x="15" y="189" width="150" height="3" fill="#B1714C" />
<rect x="15" y="192" width="6" height="3" fill="#B1714C" />
<rect x="21" y="192" width="9" height="3" fill="#FFFFFF" />
<rect x="30" y="192" width="15" height="12" fill="#B1714C" />
<rect x="45" y="192" width="3" height="12" fill="#FFFFFF" />
<rect x="48" y="192" width="27" height="3" fill="#B1714C" />
<rect x="75" y="192" width="9" height="3" fill="#FFFFFF" />
<rect x="84" y="192" width="21" height="3" fill="#B1714C" />
<rect x="105" y="192" width="3" height="12" fill="#FFFFFF" />
<rect x="108" y="192" width="12" height="18" fill="#B1714C" />
<rect x="120" y="192" width="12" height="3" fill="#FFFFFF" />
<rect x="132" y="192" width="18" height="3" fill="#B1714C" />
<rect x="150" y="192" width="6" height="3" fill="#FFFFFF" />
<rect x="156" y="192" width="9" height="18" fill="#B1714C" />
<rect x="15" y="195" width="3" height="15" fill="#B1714C" />
<rect x="18" y="195" width="3" height="6" fill="#FFFFFF" />
<rect x="21" y="195" width="6" height="6" fill="#B1714C" />
<rect x="27" y="195" width="3" height="9" fill="#FFFFFF" />
<rect x="48" y="195" width="6" height="3" fill="#FFFFFF" />
<rect x="54" y="195" width="18" height="3" fill="#B1714C" />
<rect x="72" y="195" width="3" height="9" fill="#FFFFFF" />
<rect x="75" y="195" width="21" height="3" fill="#B1714C" />
<rect x="96" y="195" width="9" height="3" fill="#FFFFFF" />
<rect x="120" y="195" width="3" height="12" fill="#FFFFFF" />
<rect x="123" y="195" width="9" height="3" fill="#B1714C" />
<rect x="132" y="195" width="3" height="6" fill="#FFFFFF" />
<rect x="135" y="195" width="12" height="3" fill="#B1714C" />
<rect x="147" y="195" width="3" height="12" fill="#FFFFFF" />
<rect x="150" y="195" width="6" height="3" fill="#B1714C" />
<rect x="48" y="198" width="6" height="6" fill="#B1714C" />
<rect x="54" y="198" width="3" height="6" fill="#FFFFFF" />
<rect x="57" y="198" width="15" height="12" fill="#B1714C" />
<rect x="75" y="198" width="18" height="6" fill="#B1714C" />
<rect x="93" y="198" width="3" height="6" fill="#FFFFFF" />
<rect x="96" y="198" width="9" height="6" fill="#B1714C" />
<rect x="123" y="198" width="9" height="3" fill="#FFFFFF" />
<rect x="135" y="198" width="9" height="12" fill="#B1714C" />
<rect x="144" y="198" width="3" height="3" fill="#FFFFFF" />
<rect x="150" y="198" width="3" height="3" fill="#FFFFFF" />
<rect x="153" y="198" width="3" height="12" fill="#B1714C" />
<rect x="18" y="201" width="3" height="9" fill="#B1714C" />
<rect x="21" y="201" width="6" height="3" fill="#FFFFFF" />
<rect x="123" y="201" width="12" height="3" fill="#B1714C" />
<rect x="144" y="201" width="3" height="9" fill="#B1714C" />
<rect x="150" y="201" width="3" height="9" fill="#B1714C" />
<rect x="21" y="204" width="9" height="6" fill="#B1714C" />
<rect x="30" y="204" width="3" height="3" fill="#FFFFFF" />
<rect x="33" y="204" width="15" height="6" fill="#B1714C" />
<rect x="48" y="204" width="6" height="3" fill="#FFFFFF" />
<rect x="54" y="204" width="3" height="6" fill="#B1714C" />
<rect x="72" y="204" width="3" height="6" fill="#B1714C" />
<rect x="75" y="204" width="9" height="3" fill="#FFFFFF" />
<rect x="84" y="204" width="12" height="6" fill="#B1714C" />
<rect x="96" y="204" width="9" height="3" fill="#FFFFFF" />
<rect x="105" y="204" width="3" height="6" fill="#B1714C" />
<rect x="123" y="204" width="12" height="3" fill="#FFFFFF" />
<rect x="30" y="207" width="3" height="3" fill="#B1714C" />
<rect x="48" y="207" width="6" height="3" fill="#B1714C" />
<rect x="75" y="207" width="9" height="3" fill="#B1714C" />
<rect x="96" y="207" width="9" height="3" fill="#B1714C" />
<rect x="120" y="207" width="15" height="3" fill="#B1714C" />
<rect x="147" y="207" width="3" height="3" fill="#B1714C" />
</svg>